<?xml version="1.0" encoding="utf-8"?>
<svg xmlns="http://www.w3.org/2000/svg" height="100" version="1.1" viewBox="0 0 100 100" width="100">
	<title>An outline of a cube, with the letter a next to the four points closest to the viewer, and the letter b next to the four points furthest from the viewer.</title>
	<path d="m12.5 37.503v49.997h49.997v-49.997zm1.004 1.004h47.989v47.989h-47.989z" stroke-width=".94312"/>
	<path d="m37.503 12.5v49.997h49.997v-49.997zm1.004 1.004h47.989v47.989h-47.989z" stroke-width=".94312"/>
	<path d="m37.65 12.649-25.002 25.002 0.70865 0.70865 25.002-25.002z" stroke-width=".94312"/>
	<path d="m86.644 12.649-25.002 25.002 0.70866 0.70865 25.002-25.002z" stroke-width=".94312"/>
	<path d="m86.644 61.641-25.002 25.002 0.70866 0.70865 25.002-25.002z" stroke-width=".94312"/>
	<path d="m37.65 61.641-25.002 25.002 0.70865 0.70865 25.002-25.002z" stroke-width=".94312"/>
	<text font-family="serif" font-size="16px" font-style="italic" x="2.7173035" y="38.221222">a</text>
	<text font-family="serif" font-size="16px" font-style="italic" x="2.2725437" y="96.020882">a</text>
	<text font-family="serif" font-size="16px" font-style="italic" x="61.046612" y="97.10321">a</text>
	<text font-family="serif" font-size="16px" font-style="italic" x="54.306042" y="35.239586">a</text>
	<text font-family="serif" font-size="16px" font-style="italic" x="28.785368" y="13.288128">b</text>
	<text font-family="serif" font-size="16px" font-style="italic" x="87.825676" y="13.931058">b</text>
	<text font-family="serif" font-size="16px" font-style="italic" x="88.510818" y="68.536583">b</text>
	<text font-family="serif" font-size="16px" font-style="italic" x="36.939953" y="75.909996">b</text>
</svg>
