<?xml version="1.0" encoding="utf-8"?>
<svg xmlns="http://www.w3.org/2000/svg" height="100" version="1.1" viewBox="0 0 240 100" width="240">
	<title>A circle labeled “Eye,” with an elongated loop projecting out of it to the right.</title>
	<text font-family="serif" font-size="16px" y="55.886848">Eye</text>
	<path d="m33.723 52.304h25" stroke="#000"/>
	<path d="m191.52-1.5335e-4c-25.983-0.01001-67.929 10.081-84.035 20.215-1.7037 1.072-7.608 4.3157-13.121 7.209-9.1416 4.7978-22.392 15.008-27.939 20.984a4.4178 4.4349 0 0 1 1.5469-0.28322 4.4178 4.4349 0 0 1 4.0059 2.5781c0.36456-3.1893 2.196-5.1672 8.9746-10.582 18.333-14.645 59.511-32.12 77.34-32.824 5.2796-0.20837 9.9712-0.87696 10.424-1.4863 0.45267-0.60869 6.814-1.5351 14.139-2.0566 11.38-0.81097 14.511-0.50083 21.518 2.1309 10.645 3.9982 16.132 7.4142 20.707 12.895 19.716 23.618 12.01 59.032-15.82 72.701-7.1858 3.5284-10.349 4.111-24.801 4.5469-34.813 1.0514-76.016-11.885-104.2-32.717-5.9297-4.3822-7.7532-6.1788-8.2168-9.0195a4.4178 4.4349 0 0 1-4.0664 2.7031 4.4178 4.4349 0 0 1-1.6445-0.32226c7.7451 8.3754 32.048 22.91 53.348 31.162 10.282 3.9837 40.274 11.062 51.17 12.074 2.4368 0.22569 11.077 0.02154 19.199-0.45313 15.162-0.88656 21.776-3.1084 32.219-10.822 5.4564-4.0307 15.217-20.535 17.053-28.838 1.9403-8.774-0.39978-24.268-5.1445-34.059-6.7886-14.007-26.216-25.733-42.65-25.736z"/>
	<path d="m72.39 52.56a4.4178 4.4349 0 0 1-4.4178 4.4349 4.4178 4.4349 0 0 1-4.4178-4.4349 4.4178 4.4349 0 0 1 4.4178-4.4349 4.4178 4.4349 0 0 1 4.4178 4.4349z" fill="none" stroke="#000"/>
</svg>
