<?xml version="1.0" encoding="utf-8"?>
<svg xmlns="http://www.w3.org/2000/svg" height="100" version="1.1" viewBox="0 0 240 100" width="240">
	<title>A circle labeled “Eye,” with an elongated loop projecting out of it to the right.</title>
	<text font-family="serif" font-size="16px" y="54.054688">Eye</text>
	<path d="m36.798 50h25" stroke="#000" stroke-width="1.5"/>
	<path d="m78.743 50.001a4.3958 4.4128 0 0 1-4.3958 4.4128 4.3958 4.4128 0 0 1-4.3958-4.4128 4.3958 4.4128 0 0 1 4.3958-4.4128 4.3958 4.4128 0 0 1 4.3958 4.4128zm103.02-49.254c-22.788-2.9e-7 -42.539 6.7625-63.329 15.421-18.504 7.7066-39.754 17.724-44.207 29.423a4.3958 4.4128 0 0 0-4.2774 4.4096 4.3958 4.4128 0 0 0 4.2774 4.4077c4.4507 11.7 25.701 21.718 44.207 29.425 20.79 8.6584 40.541 15.421 63.329 15.421 45.577 0 56.653-22.052 56.653-49.254s-11.076-49.254-56.653-49.254z" fill="none" stroke="#000" stroke-width="1.5"/>
</svg>
